#N canvas 647 34 614 785 10;
#X msg 30 98 create;
#X obj 43 121 tgl 15 0 empty empty empty 17 7 0 10 -262144 -1 -1 1
1;
#X obj 30 142 gemwin;
#X obj 211 164 fux_kinect;
#X obj 211 41 gemhead;
#X obj 211 186 pix_texture;
#X obj 211 209 rectangle 4 3;
#X obj 30 73 loadbang;
#X msg 62 120 1;
#X msg 79 98 destroy;
#X floatatom 249 142 5 0 0 0 - - -;
#X floatatom 290 141 5 0 0 0 - - -;
#X msg 100 119 dimen 1024 768;
#X obj 249 98 loadbang;
#X msg 249 120 2048;
#X text 325 139 MIN (0-2048);
#X text 290 119 MAX (0-2048);
#X floatatom 230 68 5 0 0 0 - - -;
#X text 267 68 Kinect Elevation;
#X text 368 106 use this for easy background removal;
#X connect 0 0 2 0;
#X connect 1 0 2 0;
#X connect 3 0 5 0;
#X connect 4 0 3 0;
#X connect 5 0 6 0;
#X connect 7 0 0 0;
#X connect 7 0 8 0;
#X connect 8 0 1 0;
#X connect 9 0 2 0;
#X connect 10 0 3 2;
#X connect 11 0 3 3;
#X connect 12 0 2 0;
#X connect 13 0 14 0;
#X connect 14 0 10 0;
#X connect 17 0 3 1;
