#N canvas 930 165 789 578 10;
#X msg 237 79 create;
#X obj 250 140 tgl 15 0 empty empty empty 17 7 0 10 -262144 -1 -1 1
1;
#X floatatom 194 211 5 0 0 0 - - -;
#X obj 237 161 gemwin;
#X obj 137 232 fux_kinect;
#X obj 137 209 gemhead;
#X obj 189 291 pix_texture;
#X obj 189 313 rectangle 4 3;
#X msg 299 103 dimen 800 600;
#X text 192 43 Elevation;
#X obj 189 269 scaleXYZ;
#X floatatom 210 241 5 0 0 0 - - -;
#X msg 189 424 gemList;
#X msg 141 334 bang;
#X msg 207 346 file /Users/xcorex/Public/kinect/ 10;
#X obj 189 388 fux_freeimage 0 0 800 600;
#X obj 194 68 vsl 15 128 -30 30 0 0 empty empty empty 0 -9 0 10 -262144
-1 -1 11300 1;
#X obj 141 66 bng 50 250 50 0 empty empty empty 17 7 0 10 -262144 -1
-1;
#X text 129 43 Capture;
#X msg 233 212 1.34;
#X obj 233 192 loadbang;
#X obj 299 80 loadbang;
#X msg 237 103 destroy;
#X obj 62 -53 tgl 15 0 empty empty empty 17 7 0 10 -262144 -1 -1 0
1;
#X obj 74 33 bng 15 250 50 0 empty empty empty 17 7 0 10 -262144 -1
-1;
#X obj 107 -18 metro 5000;
#X connect 0 0 3 0;
#X connect 1 0 3 0;
#X connect 2 0 4 1;
#X connect 4 0 10 0;
#X connect 5 0 4 0;
#X connect 6 0 7 0;
#X connect 7 0 15 0;
#X connect 8 0 3 0;
#X connect 10 0 6 0;
#X connect 11 0 10 1;
#X connect 11 0 10 2;
#X connect 13 0 15 0;
#X connect 14 0 15 0;
#X connect 15 0 12 0;
#X connect 16 0 2 0;
#X connect 17 0 13 0;
#X connect 19 0 11 0;
#X connect 20 0 19 0;
#X connect 21 0 8 0;
#X connect 22 0 3 0;
#X connect 23 0 25 0;
#X connect 25 0 17 0;
